<?xml version="1.0" standalone="no"?>
<!DOCTYPE svg PUBLIC "-//W3C//DTD SVG 20010904//EN"
 "http://www.w3.org/TR/2001/REC-SVG-20010904/DTD/svg10.dtd">
<svg version="1.0" xmlns="http://www.w3.org/2000/svg"
 width="1000.000000pt" height="1000.000000pt" viewBox="0 0 1000.000000 1000.000000"
 preserveAspectRatio="xMidYMid meet">
<metadata>
Created by potrace 1.14, written by Peter Selinger 2001-2017
</metadata>
<g transform="translate(0.000000,1000.000000) scale(0.100000,-0.100000)"
fill="#000000" stroke="none">
<path d="M4738 9995 c-2 -2 -43 -5 -93 -9 -49 -3 -112 -8 -140 -11 -27 -3 -72
-7 -100 -10 -27 -3 -61 -7 -74 -10 -14 -2 -45 -7 -70 -10 -25 -3 -57 -7 -71
-10 -14 -3 -38 -7 -55 -10 -68 -11 -101 -18 -210 -41 -95 -21 -100 -22 -100
-24 0 -1 -9 -3 -20 -4 -58 -8 -396 -112 -555 -171 -574 -215 -1113 -541 -1583
-958 -136 -120 -327 -316 -464 -474 -183 -211 -433 -565 -539 -763 -16 -30
-31 -57 -34 -60 -20 -20 -175 -337 -236 -482 -14 -35 -32 -76 -39 -93 -7 -16
-19 -48 -26 -70 -7 -22 -17 -44 -21 -49 -4 -6 -8 -16 -8 -24 0 -8 -6 -28 -14
-45 -8 -18 -29 -79 -47 -137 -17 -58 -34 -112 -37 -120 -3 -8 -6 -19 -8 -25
-1 -5 -10 -37 -19 -70 -19 -69 -80 -333 -89 -385 -3 -19 -8 -48 -12 -65 -3
-16 -7 -39 -9 -50 -5 -39 -17 -120 -21 -145 -2 -14 -6 -52 -10 -85 -3 -33 -8
-71 -10 -85 -25 -161 -24 -862 1 -1000 2 -14 6 -52 9 -85 3 -33 7 -69 10 -80
2 -11 7 -42 10 -70 4 -27 8 -61 11 -75 3 -14 7 -40 10 -59 3 -19 7 -37 9 -40
2 -3 7 -26 10 -51 3 -25 8 -54 10 -65 16 -75 58 -242 75 -305 12 -41 24 -84
26 -94 6 -27 64 -206 75 -231 5 -11 21 -54 36 -95 67 -184 195 -464 301 -659
69 -126 263 -435 305 -486 5 -5 38 -50 75 -100 37 -49 72 -95 77 -102 6 -7 16
-18 21 -25 153 -196 420 -475 621 -648 83 -72 208 -174 281 -228 75 -57 359
-252 366 -252 2 0 53 -30 113 -66 118 -71 436 -232 549 -279 39 -15 90 -37
115 -48 24 -11 49 -20 55 -21 5 -1 20 -8 32 -14 13 -7 23 -9 23 -5 0 4 5 2 12
-5 7 -7 19 -12 28 -12 8 0 28 -7 44 -15 16 -9 37 -17 45 -19 9 -1 54 -15 101
-30 47 -15 92 -29 100 -32 8 -2 49 -13 90 -25 70 -20 120 -32 180 -44 14 -3
32 -8 40 -11 8 -3 49 -12 90 -20 41 -8 86 -16 100 -19 14 -3 41 -8 60 -11 19
-3 42 -7 50 -9 8 -2 42 -7 75 -11 33 -3 63 -8 66 -10 3 -1 35 -6 71 -9 35 -4
78 -8 94 -10 204 -26 850 -26 1004 -1 14 3 52 7 85 10 33 4 71 8 85 10 14 3
48 7 75 11 28 3 57 8 65 10 8 2 31 6 50 9 19 3 60 10 90 16 30 7 69 14 85 17
17 2 100 23 185 44 85 22 162 42 170 44 8 2 15 4 15 5 0 1 7 3 15 5 8 2 53 16
100 31 47 15 87 28 90 29 22 4 117 39 126 46 6 5 19 10 30 12 10 2 28 8 39 14
11 6 22 11 25 11 23 2 263 107 405 179 218 109 521 289 625 370 8 6 62 46 120
89 58 42 119 89 136 103 17 14 47 40 68 56 21 17 47 39 60 50 12 11 53 47 91
80 113 100 362 351 440 446 59 71 121 145 125 149 40 36 343 471 371 533 7 15
16 27 21 27 4 0 8 4 8 9 0 4 23 48 51 97 69 119 190 363 235 470 20 48 40 94
44 103 10 18 101 265 120 326 7 22 19 58 26 80 11 35 35 119 64 225 9 30 21
84 35 150 1 8 8 33 14 55 10 38 18 81 26 135 3 14 7 36 9 50 3 13 8 42 11 65
3 22 10 67 15 100 5 33 12 85 15 115 4 30 8 69 10 85 13 91 20 280 20 515 -1
264 -6 380 -30 583 -8 74 -30 224 -41 282 -2 11 -8 45 -14 75 -13 70 -14 74
-44 200 -89 379 -227 758 -399 1095 -91 180 -104 204 -152 283 -25 41 -45 76
-45 78 0 3 -5 10 -10 17 -6 7 -46 66 -89 132 -256 394 -583 760 -971 1085 -63
53 -133 109 -155 126 -22 16 -42 31 -45 34 -38 38 -329 231 -495 327 -133 77
-485 257 -485 248 0 -2 -22 7 -49 20 -27 14 -52 25 -56 25 -3 0 -25 9 -48 19
-50 23 -333 124 -397 142 -25 7 -49 14 -55 15 -69 21 -238 65 -265 70 -19 3
-38 8 -41 10 -3 2 -21 6 -40 9 -19 3 -50 10 -69 15 -31 8 -70 15 -135 25 -11
2 -49 8 -85 14 -121 19 -164 24 -290 37 -41 4 -88 9 -105 11 -38 4 -642 12
-647 8z"/>
</g>
</svg>
